<?xml version="1.0" encoding="UTF-8"?>
<svg version="1.1" viewBox="0 0 31.75 31.75" height="120" width="120" xmlns="http://www.w3.org/2000/svg">
    <path fill="white" d="m 15.718316,1.5056882 a 6.2000452,6.2000452 0 0 0 -6.2001781,6.2001769 6.2000452,6.2000452 0 0 0 6.2001781,6.2001799 6.2000452,6.2000452 0 0 0 5.019397,-2.567142 8.2731058,8.2731058 0 0 1 2.272592,2.700162 l 4.011373,0.05787 A 11.983562,11.983563 0 0 0 21.917632,7.7291834 6.2000452,6.2000452 0 0 0 21.918493,7.7058678 6.2000452,6.2000452 0 0 0 15.718316,1.5056921 Z M 6.994186,9.7158705 A 11.983562,11.983563 0 0 0 3.7308442,17.588317 6.2000452,6.2000452 0 0 0 0.84324384,22.823659 6.2000452,6.2000452 0 0 0 7.0434213,29.023837 6.2000452,6.2000452 0 0 0 13.2436,22.823659 6.2000452,6.2000452 0 0 0 7.5133156,16.640755 8.2731058,8.2731058 0 0 1 8.8279802,13.258214 Z m 17.462945,6.8436905 a 6.2000452,6.2000452 0 0 0 -6.200181,6.200178 6.2000452,6.2000452 0 0 0 0.638331,2.736439 8.2731058,8.2731058 0 0 1 -3.208924,0.657334 8.2731058,8.2731058 0 0 1 -0.65906,-0.02851 l -1.604032,3.585531 a 11.983562,11.983563 0 0 0 2.277776,0.221125 11.983562,11.983563 0 0 0 6.005828,-1.61785 6.2000452,6.2000452 0 0 0 2.750262,0.646104 6.2000452,6.2000452 0 0 0 6.200176,-6.20018 6.2000452,6.2000452 0 0 0 -6.200176,-6.200178 z" />
</svg>
